<?xml version="1.0" encoding="UTF-8" standalone="no"?>
<!-- Created with Inkscape (http://www.inkscape.org/) -->

<svg
   width="100mm"
   height="100mm"
   viewBox="0 0 100 100"
   version="1.1"
   id="svg1019"
   inkscape:version="1.1 (c68e22c387, 2021-05-23)"
   sodipodi:docname="CBOS2023.svg"
   xmlns:inkscape="http://www.inkscape.org/namespaces/inkscape"
   xmlns:sodipodi="http://sodipodi.sourceforge.net/DTD/sodipodi-0.dtd"
   xmlns="http://www.w3.org/2000/svg"
   xmlns:svg="http://www.w3.org/2000/svg"
   xmlns:rdf="http://www.w3.org/1999/02/22-rdf-syntax-ns#"
   xmlns:cc="http://creativecommons.org/ns#">
  <sodipodi:namedview
     id="namedview1021"
     pagecolor="#efefef"
     bordercolor="#111111"
     borderopacity="1"
     inkscape:pageshadow="0"
     inkscape:pageopacity="0"
     inkscape:pagecheckerboard="false"
     inkscape:document-units="mm"
     showgrid="false"
     inkscape:zoom="3.5634119"
     inkscape:cx="123.47717"
     inkscape:cy="204.29858"
     inkscape:window-width="2560"
     inkscape:window-height="1494"
     inkscape:window-x="-11"
     inkscape:window-y="-11"
     inkscape:window-maximized="1"
     inkscape:current-layer="layer1" />
  <defs
     id="defs1016" />
  <g
     inkscape:label="Layer 1"
     inkscape:groupmode="layer"
     id="layer1"
     transform="translate(-90.778,-58.702)">
    <rect
       style="fill:#ffffff;fill-opacity:1;stroke-width:0.571662;stroke-linecap:round;stroke-linejoin:bevel;paint-order:markers stroke fill;stop-color:#000000"
       id="rect41200"
       width="100"
       height="100"
       x="90.778"
       y="58.702"
       rx="0.0088158231"
       ry="0.062699445"
       inkscape:export-filename="C:\Users\aamit\OneDrive - LotusBudh Consultants\Pictures\01 CBOS\CBOST2023.webp"
       inkscape:export-xdpi="100.076"
       inkscape:export-ydpi="100.076" />
    <g
       id="g1688">
      <rect
         style="fill:#0052cc;fill-opacity:1;stroke-width:1.72005;stroke-linecap:round;stroke-linejoin:bevel;paint-order:markers stroke fill;stop-color:#000000"
         id="rect15678-4"
         width="67.803856"
         height="86.558113"
         x="106.87608"
         y="65.422943"
         rx="0.030616838"
         ry="0.16344424"
         inkscape:export-filename="C:\Users\aamit\OneDrive - LotusBudh Consultants\Pictures\01 CBOS\CBOST2023.webp"
         inkscape:export-xdpi="100.076"
         inkscape:export-ydpi="100.076" />
      <rect
         style="fill:#ffffff;stroke-width:1.19844;stroke-linecap:round;stroke-linejoin:bevel;paint-order:markers stroke fill;stop-color:#000000"
         id="rect15678"
         width="53.377998"
         height="53.377502"
         x="114.089"
         y="89.695633"
         rx="0.024102619"
         ry="0.10079061"
         inkscape:export-filename="C:\Users\aamit\OneDrive - LotusBudh Consultants\Pictures\01 CBOS\CBOST2023.webp"
         inkscape:export-xdpi="100.076"
         inkscape:export-ydpi="100.076" />
    </g>
    <g
       id="g1111">
      <g
         id="g1667"
         style="font-weight:bold;font-size:18.3215px;line-height:1.25;font-family:Spartan;-inkscape-font-specification:'Spartan, Bold';font-variant-ligatures:none;fill:#ffffff;stroke-width:0.381697">
        <path
           d="m 122.39239,89.994629 q -1.71306,0 -3.25207,-0.60461 -1.52984,-0.61377 -2.71158,-1.694739 -1.18174,-1.080968 -1.85963,-2.491724 -0.66874,-1.419916 -0.66874,-3.041369 0,-1.621453 0.6779,-3.041369 0.67789,-1.429077 1.85047,-2.510046 1.18174,-1.080968 2.71158,-1.685578 1.52985,-0.61377 3.23375,-0.61377 1.37411,0 2.63829,0.384752 1.27335,0.37559 2.13446,0.952718 l -1.7039,3.444442 q -0.49468,-0.375591 -1.25502,-0.595449 -0.75119,-0.229019 -1.54817,-0.229019 -0.91608,0 -1.71306,0.293144 -0.78783,0.293144 -1.39244,0.824468 -0.59544,0.522163 -0.93439,1.22754 -0.33895,0.705378 -0.33895,1.539006 0,0.833629 0.33895,1.539006 0.33895,0.705378 0.93439,1.236702 0.60461,0.522162 1.39244,0.815307 0.79698,0.293144 1.71306,0.293144 0.79698,0 1.54817,-0.219858 0.76034,-0.229019 1.25502,-0.60461 l 1.7039,3.444442 q -0.81531,0.549645 -2.07949,0.943557 -1.25503,0.393913 -2.67494,0.393913 z"
           style="font-weight:900;-inkscape-font-specification:'Spartan Heavy'"
           id="path1636" />
        <path
           d="M 128.0812,89.701485 V 74.586247 h 5.11169 q 2.16194,0 3.4078,0.934396 1.24587,0.934397 1.24587,2.858154 0,2.253545 -1.79551,3.261227 1.52984,0.265662 2.32683,1.209219 0.80615,0.943558 0.80615,2.473403 0,1.364952 -0.62294,2.345152 -0.61377,0.9802 -1.74054,1.511524 -1.11761,0.522163 -2.63829,0.522163 z m 4.03073,-9.453895 h 0.0916 q 0.85195,0 1.29167,-0.338947 0.44888,-0.338948 0.44888,-0.980201 0,-0.641252 -0.4214,-0.943557 -0.42139,-0.302305 -1.31915,-0.302305 h -0.0916 z m 0,6.357561 h 0.62293 q 1.13593,0 1.66725,-0.338948 0.53133,-0.348108 0.53133,-1.071808 0,-0.73286 -0.55881,-1.10845 -0.54964,-0.375591 -1.63977,-0.375591 h -0.62293 z"
           style="font-weight:900;-inkscape-font-specification:'Spartan Heavy'"
           id="path1638" />
        <path
           d="m 147.66687,89.994629 q -1.58481,0 -2.96808,-0.60461 -1.38327,-0.604609 -2.4276,-1.676417 -1.04433,-1.080969 -1.63977,-2.500885 -0.58629,-1.429077 -0.58629,-3.059691 0,-1.630613 0.58629,-3.05053 0.59544,-1.429077 1.63977,-2.500884 1.04433,-1.080969 2.4276,-1.685578 1.38327,-0.60461 2.96808,-0.60461 1.58481,0 2.96809,0.60461 1.38327,0.604609 2.42759,1.685578 1.04433,1.071807 1.63062,2.500884 0.59545,1.419917 0.59545,3.05053 0,1.630614 -0.59545,3.059691 -0.58629,1.419916 -1.63062,2.500885 -1.04432,1.071808 -2.42759,1.676417 -1.38328,0.60461 -2.96809,0.60461 z m 0,-3.884158 q 0.74202,0 1.34663,-0.274823 0.60461,-0.283983 1.03517,-0.806146 0.43055,-0.522163 0.65957,-1.245862 0.23818,-0.73286 0.23818,-1.630614 0,-0.897753 -0.23818,-1.621452 -0.22902,-0.73286 -0.65957,-1.255023 -0.43056,-0.522163 -1.03517,-0.796986 -0.60461,-0.283983 -1.34663,-0.283983 -0.74202,0 -1.34663,0.283983 -0.60461,0.274823 -1.03516,0.796986 -0.43056,0.522163 -0.66874,1.255023 -0.22902,0.723699 -0.22902,1.621452 0,0.897754 0.22902,1.630614 0.23818,0.723699 0.66874,1.245862 0.43055,0.522163 1.03516,0.806146 0.60461,0.274823 1.34663,0.274823 z"
           style="font-weight:900;-inkscape-font-specification:'Spartan Heavy'"
           id="path1640" />
        <path
           d="m 161.69197,89.994629 q -0.97104,0 -1.85964,-0.155733 -0.88859,-0.146572 -1.64893,-0.403073 -0.75118,-0.256501 -1.34663,-0.558806 -0.59545,-0.311465 -0.9802,-0.622931 l 1.99704,-3.426121 q 0.40307,0.274823 0.87943,0.531324 0.48552,0.256501 1.00769,0.458038 0.52216,0.201536 1.04432,0.320626 0.53132,0.11909 1.02601,0.11909 0.45803,0 0.7695,-0.109929 0.31146,-0.109929 0.47636,-0.338948 0.16489,-0.23818 0.16489,-0.586288 0,-0.348109 -0.17405,-0.60461 -0.1649,-0.265662 -0.53133,-0.513002 -0.36643,-0.24734 -0.96188,-0.540484 -0.59544,-0.293144 -1.44739,-0.696217 -0.65042,-0.311466 -1.18174,-0.705378 -0.52216,-0.403073 -0.89775,-0.888593 -0.36643,-0.485519 -0.56797,-1.053486 -0.19238,-0.567966 -0.19238,-1.209219 0,-0.897754 0.37559,-1.731382 0.37559,-0.842789 1.07181,-1.511524 0.69622,-0.668734 1.66726,-1.062647 0.9802,-0.393912 2.18026,-0.393912 0.7695,0 1.63061,0.164894 0.87027,0.164893 1.68558,0.458037 0.81531,0.293144 1.42908,0.677896 l -1.59398,3.242905 q -0.47635,-0.274822 -1.00768,-0.467198 -0.53132,-0.201537 -1.05348,-0.302305 -0.52217,-0.109929 -0.98937,-0.109929 -0.44887,0 -0.7695,0.109929 -0.32062,0.100768 -0.49468,0.311466 -0.17405,0.201536 -0.17405,0.513002 0,0.201536 0.0824,0.357269 0.0916,0.146572 0.28399,0.274822 0.20153,0.128251 0.53132,0.274823 0.32979,0.146572 0.80615,0.357269 1.18173,0.522163 2.07033,1.007683 0.88859,0.48552 1.47488,1.044325 0.59545,0.549645 0.88859,1.255023 0.29314,0.705378 0.29314,1.658096 0,1.520685 -0.73286,2.610814 -0.7237,1.090129 -2.06116,1.667256 -1.33747,0.577128 -3.16962,0.577128 z"
           style="font-weight:900;-inkscape-font-specification:'Spartan Heavy'"
           id="path1642" />
      </g>
    </g>
    <g
       id="g1116"
       transform="translate(2e-5)">
      <g
         id="g1673">
        <path
           d="M 117.88718,143.09258 V 98.368004 h 11.92656 v 44.724576 z"
           style="font-weight:900;font-size:54.2116px;line-height:1.25;font-family:Spartan;-inkscape-font-specification:'Spartan Heavy';font-variant-ligatures:none;fill:#0052cc;stroke-width:1.12941"
           id="path1412" />
        <path
           d="m 141.98414,143.09258 v -34.26174 h -9.75809 V 98.368004 h 31.44273 v 10.462836 h -9.75809 v 34.26174 z"
           style="font-weight:900;font-size:54.2116px;line-height:1.25;font-family:Spartan;-inkscape-font-specification:'Spartan Heavy';font-variant-ligatures:none;fill:#0052cc;stroke-width:1.12941"
           id="path1414" />
      </g>
    </g>
  </g>
  <metadata
     id="metadata1727">
    <rdf:RDF>
      <cc:Work
         rdf:about="">
        <cc:license
           rdf:resource="http://creativecommons.org/licenses/by-nc-nd/4.0/" />
      </cc:Work>
      <cc:License
         rdf:about="http://creativecommons.org/licenses/by-nc-nd/4.0/">
        <cc:permits
           rdf:resource="http://creativecommons.org/ns#Reproduction" />
        <cc:permits
           rdf:resource="http://creativecommons.org/ns#Distribution" />
        <cc:requires
           rdf:resource="http://creativecommons.org/ns#Notice" />
        <cc:requires
           rdf:resource="http://creativecommons.org/ns#Attribution" />
        <cc:prohibits
           rdf:resource="http://creativecommons.org/ns#CommercialUse" />
      </cc:License>
    </rdf:RDF>
  </metadata>
</svg>
